<?xml version="1.0" encoding="UTF-8"?>
<svg width="48px" height="49px" viewBox="0 0 48 49" version="1.1" xmlns="http://www.w3.org/2000/svg" xmlns:xlink="http://www.w3.org/1999/xlink">
    <!-- Generator: Sketch 60.1 (88133) - https://sketch.com -->
    <title>Group 30</title>
    <desc>Created with Sketch.</desc>
    <g id="Projects-UI" stroke="none" stroke-width="1" fill="none" fill-rule="evenodd">
        <g id="07" transform="translate(-1430.000000, -490.000000)" fill="#9B9B9B" fill-rule="nonzero">
            <g id="Group-30" transform="translate(1430.000000, 490.851958)">
                <path d="M47.987,21.8794821 C47.981,21.7887248 47.964,21.7019569 47.934,21.6161863 C47.923,21.5842717 47.915,21.5533544 47.901,21.522437 C47.853,21.4187145 47.792,21.3209759 47.708,21.2381973 C47.707,21.2371999 47.707,21.2371999 47.707,21.2371999 L42,15.5444256 L42,9.97332579 C42,9.95138447 41.989,9.93243515 41.987,9.91049383 C41.981,9.82272857 41.964,9.7379553 41.936,9.65417936 C41.925,9.62226472 41.917,9.59134741 41.902,9.5604301 C41.853,9.45471284 41.792,9.35398225 41.706,9.26821165 L32.706,0.292218446 C32.62,0.206447844 32.519,0.144613224 32.412,0.0967412601 C32.382,0.082778604 32.352,0.0747999434 32.321,0.0648266176 C32.236,0.0349066402 32.149,0.0179519864 32.058,0.0129653235 C32.039,0.00997332579 32.021,-4.26325641e-14 32,-4.26325641e-14 L7,-4.26325641e-14 C6.448,-4.26325641e-14 6,0.446804995 6,0.997332579 L6,15.5444256 L0.293,21.2362026 C0.293,21.2362026 0.292,21.2371999 0.291,21.2381973 C0.207,21.3219732 0.147,21.4197118 0.099,21.522437 C0.085,21.5533544 0.077,21.5842717 0.066,21.6161863 C0.036,21.7019569 0.018,21.7887248 0.013,21.8794821 C0.011,21.9014234 0,21.9193754 0,21.9413167 L0,40.8906357 C0,41.4411633 0.448,41.8879683 1,41.8879683 L6,41.8879683 L6,46.8746312 C6,47.4251588 6.448,47.8719638 7,47.8719638 L41,47.8719638 C41.552,47.8719638 42,47.4251588 42,46.8746312 L42,41.8879683 L47,41.8879683 C47.552,41.8879683 48,41.4411633 48,40.8906357 L48,21.9413167 C48,21.9193754 47.989,21.9014234 47.987,21.8794821 Z M44.586,20.9439841 L42,20.9439841 L42,18.3648821 L44.586,20.9439841 Z M38.586,8.97599321 L33,8.97599321 L33,3.40489342 L38.586,8.97599321 Z M8,1.99466516 L31,1.99466516 L31,9.97332579 C31,10.5238534 31.448,10.9706584 32,10.9706584 L40,10.9706584 L40,15.9573213 L40,20.9439841 L8,20.9439841 L8,15.9573213 L8,1.99466516 Z M6,18.3648821 L6,20.9439841 L3.414,20.9439841 L6,18.3648821 Z M40,45.8772986 L8,45.8772986 L8,41.8879683 L40,41.8879683 L40,45.8772986 Z M46,39.8933031 L2,39.8933031 L2,22.9386493 L7,22.9386493 L41,22.9386493 L46,22.9386493 L46,39.8933031 Z" id="Shape"></path>
                <path d="M16.11,37.1480419 L16.11,28.5730419 L19.155,28.5730419 L19.155,27.0260419 L11.168,27.0260419 L11.168,28.5730419 L14.227,28.5730419 L14.227,37.1480419 L16.11,37.1480419 Z M21.178,37.1480419 C21.29,37.1480419 21.3833333,37.1142086 21.458,37.0465419 C21.5326667,36.9788752 21.5956667,36.9053752 21.647,36.8260419 L21.647,36.8260419 L23.894,33.2420419 C23.9173333,33.2000419 23.9406667,33.1545419 23.964,33.1055419 C23.9873333,33.0565419 24.0083333,33.0040419 24.027,32.9480419 L24.027,32.9480419 L26.372,36.8260419 C26.4233333,36.9100419 26.4875,36.9847086 26.5645,37.0500419 C26.6415,37.1153752 26.743,37.1480419 26.869,37.1480419 L26.869,37.1480419 L28.752,37.1480419 L25.399,31.8630419 L28.661,27.0260419 L26.855,27.0260419 C26.6916667,27.0260419 26.5586667,27.1123752 26.456,27.2850419 L26.456,27.2850419 L24.349,30.6100419 C24.3116667,30.6707086 24.279,30.7302086 24.251,30.7885419 C24.223,30.8468752 24.1973333,30.9063752 24.174,30.9670419 L24.174,30.9670419 L21.871,27.2500419 C21.8243333,27.1707086 21.7718333,27.1135419 21.7135,27.0785419 C21.6551667,27.0435419 21.5606667,27.0260419 21.43,27.0260419 L21.43,27.0260419 L19.554,27.0260419 L22.781,31.9400419 L19.414,37.1480419 L21.178,37.1480419 Z M33.946,37.1480419 L33.946,28.5730419 L36.991,28.5730419 L36.991,27.0260419 L29.004,27.0260419 L29.004,28.5730419 L32.063,28.5730419 L32.063,37.1480419 L33.946,37.1480419 Z" id="TXT"></path>
            </g>
        </g>
    </g>
</svg>