<?xml version="1.0" encoding="UTF-8"?>
<svg width="16px" height="16px" viewBox="0 0 16 16" version="1.1" xmlns="http://www.w3.org/2000/svg" xmlns:xlink="http://www.w3.org/1999/xlink">
    <!-- Generator: Sketch 51.3 (57544) - http://www.bohemiancoding.com/sketch -->
    <title>Icon/Failed</title>
    <desc>Created with Sketch.</desc>
    <defs></defs>
    <g id="Icon/Failed" stroke="none" stroke-width="1" fill="none" fill-rule="evenodd">
        <g id="close-button" fill="#D0021B" fill-rule="nonzero">
            <path d="M2.50779412,2.18244118 C-0.704470588,5.21502941 -0.850029412,10.2773824 2.18255882,13.4896176 C2.23582353,13.5462353 2.29005882,13.6019118 2.34508824,13.6567941 C5.46870588,16.7805882 10.5332647,16.7805882 13.6567353,13.6567941 C16.7805294,10.5333235 16.7805294,5.46876471 13.6567353,2.34514706 C10.5969706,-0.717382353 5.65588235,-0.789529412 2.50779412,2.18244118 Z M4.04208824,5.62552941 L5.62564706,4.04197059 L8.00108824,6.41741176 L10.3765294,4.04197059 L11.9602647,5.62552941 L9.58482353,8.00176471 L11.9604118,10.3763824 L10.3766765,11.9601176 L8.00123529,9.58452941 L5.62579412,11.9601176 L4.04223529,10.3763824 L6.4175,8.00176471 L4.04208824,5.62552941 Z" id="Shape"></path>
        </g>
    </g>
</svg>