<?xml version="1.0" encoding="UTF-8"?>
<svg width="16px" height="16px" viewBox="0 0 16 16" version="1.1" xmlns="http://www.w3.org/2000/svg" xmlns:xlink="http://www.w3.org/1999/xlink">
    <!-- Generator: Sketch 51.3 (57544) - http://www.bohemiancoding.com/sketch -->
    <title>Icon/Queue</title>
    <desc>Created with Sketch.</desc>
    <defs></defs>
    <g id="Icon/Queue" stroke="none" stroke-width="1" fill="none" fill-rule="evenodd">
        <path d="M8,15.9042735 C12.3760684,15.9042735 15.9179487,12.3487179 15.9179487,7.98632479 C15.9179487,3.61025641 12.3623932,0.0683760684 8,0.0683760684 C3.63760684,0.0683760684 0.0820512821,3.61025641 0.0820512821,7.98632479 C0.0820512821,12.3487179 3.62393162,15.9042735 8,15.9042735 Z M8,1.17606838 C11.7606838,1.17606838 14.8102564,4.22564103 14.8102564,7.98632479 C14.8102564,11.7470085 11.7606838,14.7965812 8,14.7965812 C4.23931624,14.7965812 1.18974359,11.7333333 1.18974359,7.98632479 C1.18974359,4.22564103 4.23931624,1.17606838 8,1.17606838 Z" id="Shape" fill="#9E9E9E" fill-rule="nonzero"></path>
        <path d="M9.5,8.5 L11,8.5 L10.5,8 L10.5,9 L11,8.5 L9.5,8.5 Z M9.5,8.5 L7,8.5 L7.5,9 L7.5,8.25 L7.5,8.5 L9.5,8.5 Z M7.5,6 L7.5,4 L7,4.5 L8,4.5 L7.5,4 L7.5,6 Z" id="Combined-Shape" stroke="#979797" fill="#D8D8D8" fill-rule="nonzero"></path>
    </g>
</svg>