
<svg xmlns="http://www.w3.org/2000/svg" version="1.1" xmlns:xlink="http://www.w3.org/1999/xlink" preserveAspectRatio="none" x="0px" y="0px" width="30px" height="30px" viewBox="0 0 30 30">
<defs>
<g id="Layer0_0_FILL">
<path fill="#EF8822" stroke="none" d="
M 14.95 23.3
Q 18.35 23.3 20.7 20.9 23.1 18.55 23.1 15.15 23.1 11.75 20.7 9.35 18.35 7 14.95 7 11.55 7 9.15 9.35 6.8 11.75 6.8 15.15 6.8 18.55 9.15 20.9 11.55 23.3 14.95 23.3 Z"/>
</g>

<path id="Layer1_0_1_STROKES" stroke="#EF8822" stroke-width="1" stroke-linejoin="round" stroke-linecap="round" fill="none" d="
M 27.1 15.15
Q 27.1 20.2 23.55 23.75 20 27.3 14.95 27.3 9.9 27.3 6.35 23.75 2.8 20.2 2.8 15.15 2.8 10.1 6.35 6.55 9.9 3 14.95 3 20 3 23.55 6.55 27.1 10.1 27.1 15.15 Z"/>
</defs>

<g transform="matrix( 1, 0, 0, 1, 0,0) ">
<use xlink:href="#Layer1_0_1_STROKES"/>
</g>

<g transform="matrix( 1, 0, 0, 1, 0,0) ">
<use xlink:href="#Layer0_0_FILL"/>
</g>
</svg>
