<?xml version="1.0" encoding="UTF-8"?>
<svg width="49px" height="49px" viewBox="0 0 49 49" version="1.1" xmlns="http://www.w3.org/2000/svg" xmlns:xlink="http://www.w3.org/1999/xlink">
    <!-- Generator: Sketch 54.1 (76490) - https://sketchapp.com -->
    <title>csv</title>
    <desc>Created with Sketch.</desc>
    <g id="Intent-and-Flow-Discovery" stroke="none" stroke-width="1" fill="none" fill-rule="evenodd">
        <g id="01B-Create-New-Project---Upload-File" transform="translate(-658.000000, -333.000000)" fill="#9B9B9B" fill-rule="nonzero">
            <g id="Group-4" transform="translate(445.000000, 155.000000)">
                <g id="Group-7">
                    <g id="Group-4" transform="translate(27.500000, 79.481906)">
                        <g id="Group-8" transform="translate(0.000000, 36.728489)">
                            <g id="Upload-file" transform="translate(0.000000, 28.100796)">
                                <g id="csv" transform="translate(186.000000, 33.909308)">
                                    <path d="M47.987,21.8794821 C47.981,21.7887248 47.964,21.7019569 47.934,21.6161863 C47.923,21.5842717 47.915,21.5533544 47.901,21.522437 C47.853,21.4187145 47.792,21.3209759 47.708,21.2381973 C47.707,21.2371999 47.707,21.2371999 47.707,21.2371999 L42,15.5444256 L42,9.97332579 C42,9.95138447 41.989,9.93243515 41.987,9.91049383 C41.981,9.82272857 41.964,9.7379553 41.936,9.65417936 C41.925,9.62226472 41.917,9.59134741 41.902,9.5604301 C41.853,9.45471284 41.792,9.35398225 41.706,9.26821165 L32.706,0.292218446 C32.62,0.206447844 32.519,0.144613224 32.412,0.0967412601 C32.382,0.082778604 32.352,0.0747999434 32.321,0.0648266176 C32.236,0.0349066402 32.149,0.0179519864 32.058,0.0129653235 C32.039,0.00997332579 32.021,0 32,0 L7,0 C6.448,0 6,0.446804995 6,0.997332579 L6,15.5444256 L0.293,21.2362026 C0.293,21.2362026 0.292,21.2371999 0.291,21.2381973 C0.207,21.3219732 0.147,21.4197118 0.099,21.522437 C0.085,21.5533544 0.077,21.5842717 0.066,21.6161863 C0.036,21.7019569 0.018,21.7887248 0.013,21.8794821 C0.011,21.9014234 0,21.9193754 0,21.9413167 L0,40.8906357 C0,41.4411633 0.448,41.8879683 1,41.8879683 L6,41.8879683 L6,46.8746312 C6,47.4251588 6.448,47.8719638 7,47.8719638 L41,47.8719638 C41.552,47.8719638 42,47.4251588 42,46.8746312 L42,41.8879683 L47,41.8879683 C47.552,41.8879683 48,41.4411633 48,40.8906357 L48,21.9413167 C48,21.9193754 47.989,21.9014234 47.987,21.8794821 Z M44.586,20.9439841 L42,20.9439841 L42,18.3648821 L44.586,20.9439841 Z M38.586,8.97599321 L33,8.97599321 L33,3.40489342 L38.586,8.97599321 Z M8,1.99466516 L31,1.99466516 L31,9.97332579 C31,10.5238534 31.448,10.9706584 32,10.9706584 L40,10.9706584 L40,15.9573213 L40,20.9439841 L8,20.9439841 L8,15.9573213 L8,1.99466516 Z M6,18.3648821 L6,20.9439841 L3.414,20.9439841 L6,18.3648821 Z M40,45.8772986 L8,45.8772986 L8,41.8879683 L40,41.8879683 L40,45.8772986 Z M46,39.8933031 L2,39.8933031 L2,22.9386493 L7,22.9386493 L41,22.9386493 L46,22.9386493 L46,39.8933031 Z" id="Shape"></path>
                                    <path d="M23.422,27.810619 C23.569,27.6749817 23.734,27.5762458 23.915,27.5134138 C24.096,27.4515792 24.283,27.4206619 24.476,27.4206619 C25.145,27.4206619 25.7,27.6859524 26.142,28.2175306 L27.264,26.7594304 C26.935,26.3754574 26.53,26.0842363 26.049,25.8857671 C25.567,25.6882952 25.021,25.5895593 24.409,25.5895593 C23.99,25.5895593 23.576,25.6603699 23.168,25.8009938 C22.76,25.942615 22.394,26.1600335 22.071,26.4542466 C21.748,26.7484598 21.487,27.1184701 21.289,27.5642778 C21.091,28.0110828 20.991,28.5456531 20.991,29.1669913 C20.991,29.6646602 21.056,30.0905212 21.186,30.446569 C21.316,30.803614 21.492,31.1137845 21.713,31.3790749 C21.934,31.6453627 22.189,31.8737519 22.478,32.0662371 C22.767,32.2587223 23.076,32.4332555 23.405,32.5918313 C23.926,32.8521351 24.357,33.1343803 24.697,33.439564 C25.037,33.7447478 25.207,34.1576435 25.207,34.6772538 C25.207,35.208832 25.065,35.6207304 24.782,35.9149435 C24.499,36.2091566 24.142,36.3557645 23.711,36.3557645 C23.326,36.3557645 22.949,36.2650072 22.58,36.08449 C22.211,35.9039728 21.897,35.6546397 21.636,35.3384853 L20.531,36.8304948 C20.871,37.2264358 21.324,37.5535609 21.891,37.8138647 C22.458,38.0741685 23.075,38.2038218 23.744,38.2038218 C24.209,38.2038218 24.651,38.1250325 25.07,37.9664566 C25.489,37.8078807 25.855,37.5735076 26.167,37.2623398 C26.479,36.9521694 26.728,36.570191 26.915,36.1183993 C27.102,35.6666077 27.196,35.1460001 27.196,34.5585712 C27.196,34.0499316 27.117,33.6091106 26.958,33.2361082 C26.799,32.8631058 26.595,32.5409674 26.346,32.2696929 C26.097,31.9984185 25.819,31.7670373 25.513,31.5745521 C25.207,31.3820669 24.907,31.2125204 24.612,31.0659125 C24.113,30.8175767 23.711,30.5542809 23.405,30.2770224 C23.099,30.0007613 22.946,29.6078123 22.946,29.0991726 C22.946,28.8049595 22.988,28.5506397 23.074,28.3362132 C23.159,28.1217867 23.275,27.9462562 23.422,27.810619 Z" id="Shape"></path>
                                    <path d="M15.177,28.7770342 C15.381,28.3810932 15.636,28.0679308 15.942,27.8355523 C16.248,27.6041711 16.605,27.4884805 17.013,27.4884805 C17.75,27.4884805 18.35,27.8215896 18.815,28.4888051 L19.988,27.0646142 C19.659,26.5898839 19.234,26.2258575 18.713,25.9705403 C18.192,25.7162205 17.585,25.5895593 16.894,25.5895593 C16.225,25.5895593 15.616,25.7451432 15.066,26.0553136 C14.516,26.3664814 14.049,26.8013184 13.663,27.360822 C13.278,27.9213229 12.98,28.587541 12.771,29.3614711 C12.561,30.1363985 12.457,30.9811392 12.457,31.8966905 C12.457,32.8122418 12.562,33.6539905 12.771,34.4229339 C12.98,35.1918774 13.275,35.8551035 13.655,36.4146071 C14.035,36.975108 14.499,37.412937 15.049,37.7290914 C15.599,38.0452459 16.214,38.2038218 16.894,38.2038218 C17.642,38.2038218 18.262,38.0572139 18.755,37.7630008 C19.248,37.4687876 19.653,37.0848146 19.97,36.6100843 L18.797,35.2367573 C18.604,35.5309704 18.363,35.7793063 18.075,35.9827621 C17.787,36.1862179 17.443,36.2879459 17.047,36.2879459 C16.628,36.2879459 16.262,36.1722553 15.95,35.9398768 C15.638,35.7084956 15.381,35.3953332 15.176,34.9993922 C14.971,34.6034511 14.819,34.1376968 14.717,33.6001346 C14.615,33.0635696 14.564,32.4960874 14.564,31.8966905 C14.564,31.286323 14.615,30.7128568 14.717,30.1752945 C14.82,29.6387296 14.973,29.1729753 15.177,28.7770342 Z" id="Shape"></path>
                                    <polygon id="Shape" points="32.007 35.5249864 31.956 35.5249864 29.95 25.8947431 27.672 25.8947431 30.613 37.898638 33.197 37.898638 36.189 25.8947431 34.013 25.8947431"></polygon>
                                </g>
                            </g>
                        </g>
                    </g>
                </g>
            </g>
        </g>
    </g>
</svg>