<?xml version="1.0" encoding="UTF-8"?>
<svg width="45px" height="16px" viewBox="0 0 45 16" version="1.1" xmlns="http://www.w3.org/2000/svg" xmlns:xlink="http://www.w3.org/1999/xlink">
    <!-- Generator: Sketch Beta 47.1 (45415) - http://www.bohemiancoding.com/sketch -->
    <title>Group 4</title>
    <desc>Created with Sketch Beta.</desc>
    <defs></defs>
    <g id="Vis-Refresh" stroke="none" stroke-width="1" fill="none" fill-rule="evenodd">
        <g id="AIT_Refresh_PhaseOne_01" transform="translate(-20.000000, -12.000000)" fill="#EAEAEA">
            <g id="Group-4" transform="translate(20.000000, 12.000000)">
                <polygon id="Fill-1" points="29.0742857 0 29.0742857 0.986367143 31.0044952 0.986367143 31.0044952 14.3151892 29.0742857 14.3151892 29.0742857 15.3369369 32.3047619 15.3369369 32.3047619 0"></polygon>
                <polygon id="Fill-2" points="0 0 0.00459363838 15.3369369 3.23047619 15.3369369 3.23047619 14.3419927 1.30344489 14.3419927 1.30344489 1.00780991 3.23047619 1.00780991 3.22588255 0"></polygon>
                <path d="M11.2154827,10.4932686 C11.4287199,10.3618951 11.644058,10.2305216 11.8604466,10.0948052 C13.7007995,8.90267205 15.4980848,7.50859289 15.4980848,4.74649212 C15.4980848,2.0310778 13.5842018,0.207048985 10.7364867,0.207048985 C9.26588508,0.207048985 8.02532754,0.708656908 7.15136999,1.65975765 C6.23224396,2.65754484 5.76900444,4.11459642 5.8488371,5.76165101 L5.85619011,5.92776792 L7.9496966,5.92776792 L7.94339402,5.74645077 C7.90557855,4.61511861 8.24171607,3.55544473 8.84361232,2.91160599 C9.30790227,2.41542673 9.90874808,2.16353703 10.6324942,2.16353703 C12.1766259,2.16353703 13.2974344,3.24058262 13.2974344,4.72477749 C13.2974344,6.66497956 12.2365004,7.53465044 9.63248506,9.19690527 C7.42973388,10.6083561 5.72173511,11.9709491 5.43286692,15.5364911 L5.41711048,15.7264941 L15.3573272,15.7264941 L15.3573272,13.7689203 L7.86566222,13.7689203 C8.24801865,12.3096973 9.69130912,11.4259119 11.2154827,10.4932686" id="Fill-3"></path>
                <path d="M24.8011108,10.2217272 L26.786423,10.2217272 L26.786423,12.1738723 L24.8011108,12.1738723 L24.8011108,15.7263856 L22.8052943,15.7263856 L22.8052943,12.1738723 L16.3703616,12.1738723 L16.3703616,10.1891552 L16.4008241,9.74509107 L22.7506719,0.206940412 L24.8011108,0.206940412 L24.8011108,10.2217272 Z M18.3693294,10.2217272 L22.8052943,10.2217272 L22.8052943,3.4739063 L18.3693294,10.2217272 Z" id="Fill-5"></path>
                <path d="M34.9155938,0.2134548 L34.9155938,2.31217367 L42.5343608,2.31217367 C39.2213053,6.0709759 37.1561604,10.873166 36.8525863,15.5526685 L36.8410315,15.7426715 L39.1939942,15.7426715 L39.203448,15.5754689 C39.4692068,10.8742518 41.8568336,5.20999087 44.8820712,2.10697042 L44.9335423,2.05376958 L44.9335423,0.2134548 L34.9155938,0.2134548 Z" id="Fill-7"></path>
            </g>
        </g>
    </g>
</svg>