<?xml version="1.0" encoding="UTF-8"?>
<svg width="56px" height="15px" viewBox="0 0 56 15" version="1.1" xmlns="http://www.w3.org/2000/svg" xmlns:xlink="http://www.w3.org/1999/xlink">
    <!-- Generator: Sketch Beta 50 (54983) - http://www.bohemiancoding.com/sketch -->
    <title>[24]7ai_Logo_One Color_White</title>
    <desc>Created with Sketch Beta.</desc>
    <defs></defs>
    <g id="Symbols" stroke="none" stroke-width="1" fill="none" fill-rule="evenodd">
        <g id="bar/nav" transform="translate(-20.000000, -13.000000)" fill="#EAEAEA">
            <g id="Group-5">
                <g id="[24]7ai_Logo_One-Color_White" transform="translate(20.000000, 13.000000)">
                    <polyline id="Fill-1" points="39.6108058 3.72894114 33 3.72894114 33 1 43 1 43 3.60984061 37.2909314 15 33.7604355 15 39.6108058 3.72894114"></polyline>
                    <path d="M5,10.9083347 L10.565944,6.10569354 C10.8498579,5.85962356 11.1334292,5.58065653 11.4170006,5.26945038 C11.6995445,4.95857321 11.8413302,4.59571868 11.8413302,4.18022887 C11.8413302,3.71407759 11.6659817,3.34760439 11.3152848,3.08212515 C10.9639029,2.81664591 10.5522449,2.68341283 10.0806534,2.68341283 C9.51351074,2.68341283 9.07068735,2.85184576 8.75492311,3.18871161 C8.43676153,3.52656437 8.25798829,3.94139625 8.21791842,4.4335362 L5.18219802,4.21970534 C5.22261036,3.50682614 5.37706771,2.88770355 5.6479674,2.36266654 C5.91783965,1.83762953 6.27504367,1.40009869 6.71992192,1.04974505 C7.16514264,0.699720375 7.68844823,0.43720187 8.28915374,0.262518505 C8.88848933,0.0875061682 9.5398815,0 10.2423028,0 C10.8899277,0 11.4974828,0.0875061682 12.0635981,0.262518505 C12.6307408,0.43720187 13.1232234,0.697088611 13.5413884,1.0402049 C13.9602384,1.38397913 14.2876468,1.81493056 14.5239563,2.33305919 C14.7602658,2.85184576 14.8777355,3.45484879 14.8777355,4.14141034 C14.8777355,4.58223089 14.8304736,4.98094321 14.7359499,5.33754729 C14.6414261,5.69415137 14.5099147,6.0178584 14.3417583,6.30998426 C14.1722319,6.60178114 13.9739375,6.87087906 13.7444776,7.11662006 C13.5150176,7.36301901 13.2650091,7.60283855 12.9951368,7.83640764 L8.64327545,11.4330427 L15,11.4330427 L15,14 L5,14 L5,10.9083347" id="Fill-2"></path>
                    <path d="M41,14.0005283 C41,13.862828 41.0260472,13.7325233 41.0770855,13.6096144 C41.1267159,13.4860011 41.1978177,13.3792921 41.2879268,13.2884311 C41.3790919,13.1982743 41.4857445,13.1271351 41.6089405,13.0760697 C41.7321366,13.0260609 41.8627244,13 42,13 C42.1372756,13 42.2678634,13.0260609 42.3910595,13.0760697 C42.5142555,13.1271351 42.6209081,13.1982743 42.7120732,13.2884311 C42.8021823,13.3792921 42.8732841,13.4860011 42.9229145,13.6096144 C42.9739528,13.7325233 43,13.862828 43,14.0005283 C43,14.1382286 42.9739528,14.2685332 42.9229145,14.3917943 C42.8732841,14.5150555 42.8021823,14.6217644 42.7120732,14.7119211 C42.6209081,14.8031344 42.5142555,14.8732171 42.3910595,14.9239303 C42.2678634,14.9753478 42.1372756,15 42,15 C41.8627244,15 41.7321366,14.9753478 41.6089405,14.9239303 C41.4857445,14.8732171 41.3790919,14.8031344 41.2879268,14.7119211 C41.1978177,14.6217644 41.1267159,14.5150555 41.0770855,14.3917943 C41.0260472,14.2685332 41,14.1382286 41,14.0005283" id="Fill-3"></path>
                    <path d="M48.3765871,11.4710213 C48.207069,11.4710213 47.9943134,11.4782043 47.7400363,11.4940067 C47.4850728,11.5098092 47.2400608,11.5543434 47.0056866,11.6268911 C46.7699397,11.7005163 46.5712535,11.8107744 46.4061964,11.9569473 C46.2407961,12.1031201 46.1587823,12.3078339 46.1587823,12.5685746 C46.1587823,12.8501459 46.2730526,13.0595286 46.5029658,13.1960045 C46.7328791,13.3314029 46.9730869,13.3992817 47.2229031,13.3992817 C47.4421785,13.3992817 47.6545909,13.3691134 47.8591107,13.3062626 C48.0650032,13.2434119 48.247218,13.1539843 48.4067846,13.0390572 C48.5663513,12.9241302 48.6943478,12.7779574 48.7890583,12.6001796 C48.8837688,12.4224018 48.9311241,12.2133782 48.9311241,11.9727497 L48.9311241,11.4710213 L48.3765871,11.4710213 Z M48.9311241,13.8550393 L48.9012697,13.8550393 C48.6517967,14.2626712 48.3189372,14.5550168 47.9040639,14.7327946 C47.4895338,14.9105724 47.0526987,15 46.5932154,15 C46.2534928,15 45.9268101,14.9504377 45.6114515,14.8513131 C45.2971224,14.7521886 45.0198539,14.6020651 44.7796461,14.4041751 C44.5394382,14.2059259 44.349674,13.9588328 44.2100103,13.6664871 C44.0703466,13.3737823 44,13.0340292 44,12.6472278 C44,12.2072727 44.0772097,11.8359147 44.2319722,11.5324355 C44.3867346,11.2303928 44.5970881,10.9786308 44.8616599,10.7807407 C45.1262317,10.581055 45.4285504,10.4276992 45.768273,10.3178002 C46.1079955,10.2075421 46.4604147,10.1263749 46.8251875,10.0746577 C47.1903034,10.0225814 47.5540468,9.99097643 47.9191627,9.98020202 C48.2842786,9.96942761 48.6215991,9.96439955 48.9311241,9.96439955 C48.9311241,9.54635241 48.7890583,9.21378227 48.5035541,8.96848485 C48.2194225,8.72282828 47.8821021,8.59964085 47.4919359,8.59964085 C47.1223589,8.59964085 46.7850385,8.68080808 46.481004,8.84278339 C46.1762832,9.00439955 45.9034757,9.22707071 45.6642973,9.51007856 L44.4653169,8.22397306 C44.8846512,7.81526375 45.3743321,7.50927048 45.9336732,7.30599327 C46.4926712,7.10199776 47.0726016,7 47.6720918,7 C48.3316339,7 48.8734742,7.08619529 49.2982989,7.25894501 C49.7234668,7.43061728 50.0631894,7.68453423 50.3174665,8.01925926 C50.5727732,8.35434343 50.7491544,8.76413019 50.8496985,9.2514927 C50.9492132,9.73705948 51,10.2994837 51,10.9366105 L51,14.8110887 L48.9311241,14.8110887 L48.9311241,13.8550393 Z" id="Fill-4"></path>
                    <path d="M53.2072096,15 L55.7927904,15 L55.7927904,7.63648691 L53.2072096,7.63648691 L53.2072096,15 Z M53,5.31819615 C53,4.95499842 53.1460334,4.64452854 53.4400737,4.3867865 C53.7321405,4.12939136 54.0853835,4 54.5001973,4 C54.9130378,4 55.2666754,4.12939136 55.560321,4.3867865 C55.8523878,4.64452854 56,4.95499842 56,5.31819615 C56,5.68278146 55.8523878,5.99325134 55.560321,6.25029959 C55.2666754,6.50838852 54.9130378,6.6367392 54.5001973,6.6367392 C54.0853835,6.6367392 53.7321405,6.50838852 53.4400737,6.25029959 C53.1460334,5.99325134 53,5.68278146 53,5.31819615 Z" id="Fill-5"></path>
                    <path d="M22.1999321,4.35388439 L22.0655126,4.35388439 L19.3676171,9.70036084 L22.2854718,9.70036084 L22.1999321,4.35388439 Z M22.2854718,12.19177 L16,12.19177 L16,9.70036084 L20.4412763,1 L25.1754922,1 L25.1754922,9.70036084 L27,9.70036084 L27,12.19177 L25.1754922,12.19177 L25.1754922,15 L22.2854718,15 L22.2854718,12.19177 Z" id="Fill-6"></path>
                    <polyline id="Fill-7" points="29 1 32 1 32 15 29 15 29 14.0539363 30.6909262 14.0539363 30.6909262 1.94606365 29 1.94606365 29 1"></polyline>
                    <polyline id="Fill-8" points="3 1.94606365 1.30907382 1.94606365 1.30907382 14.0539363 3 14.0539363 3 15 0 15 0 1 3 1 3 1.94606365"></polyline>
                </g>
            </g>
        </g>
    </g>
</svg>