<?xml version="1.0" encoding="utf-8"?>
<!-- Generator: Adobe Illustrator 19.2.1, SVG Export Plug-In . SVG Version: 6.00 Build 0)  -->
<svg version="1.1" id="layer" xmlns="http://www.w3.org/2000/svg" xmlns:xlink="http://www.w3.org/1999/xlink" x="0px" y="0px"
	 viewBox="0 0 652 652" style="enable-background:new 0 0 652 652;" xml:space="preserve">
<style type="text/css">
	.st0{fill:#F38B00;}
	.st1{fill:#231F20;}
</style>
<path class="st0" d="M457,274.4h-71.9v-30.3h108.7v28.9l-62.1,126.2h-38.4L457,274.4z"/>
<path class="st1" d="M74.9,364.6l60.3-54.2c3.3-3,6.3-6.2,9.2-9.5c3-3.4,4.7-7.8,4.6-12.3c0.2-4.8-2-9.4-5.8-12.3
	c-3.8-3-8.5-4.6-13.4-4.5c-5.4-0.3-10.6,1.8-14.4,5.7c-3.4,3.9-5.4,8.8-5.6,14L77,289.2c0.2-7.3,2-14.4,5-21
	c2.8-5.7,6.7-10.8,11.6-14.8c5-4,10.8-7,16.9-8.8c6.9-2,14-3,21.2-3c6.7,0,13.4,1,19.7,3c5.9,1.8,11.3,4.8,16,8.8
	c4.6,4,8.3,9,10.7,14.6c2.6,6.5,3.9,13.4,3.7,20.4c0.1,4.5-0.4,9.1-1.5,13.5c-0.9,3.9-2.4,7.6-4.3,11.1c-1.8,3.3-4,6.3-6.5,9.1
	c-2.6,2.9-5.3,5.6-8.1,8.1l-47.1,40.4h68.9v28.9H74.9V364.6L74.9,364.6z"/>
<path class="st1" d="M466.2,389.8c0-1.4,0.3-2.8,0.8-4.1c0.5-1.3,1.3-2.4,2.2-3.4c1-1,2.1-1.7,3.4-2.2c2.6-1.1,5.6-1.1,8.2,0
	c1.3,0.5,2.4,1.3,3.4,2.2c1,1,1.7,2.1,2.2,3.4c1.1,2.6,1.1,5.6,0,8.2c-0.5,1.3-1.3,2.4-2.2,3.4c-1,1-2.1,1.7-3.4,2.2
	c-2.6,1.1-5.6,1.1-8.2,0c-1.3-0.5-2.4-1.3-3.4-2.2c-1-1-1.7-2.1-2.2-3.4C466.5,392.6,466.2,391.2,466.2,389.8z"/>
<path class="st1" d="M556.7,389.7h-0.3c-2.6,4.1-6.3,7.2-10.8,9.1c-7.9,3.2-16.6,3.6-24.8,1.2c-3.3-1-6.3-2.5-9-4.6
	c-2.6-2-4.7-4.6-6.2-7.6c-1.6-3.3-2.3-6.9-2.3-10.5c-0.1-4,0.7-7.9,2.5-11.5c1.6-3.1,4-5.7,6.8-7.8c3-2.1,6.3-3.7,9.8-4.8
	c3.7-1.2,7.6-2,11.4-2.5c3.9-0.5,7.9-0.9,11.8-1c4,0,7.6,0,10.9,0c0.2-4-1.6-7.8-4.6-10.3c-3.1-2.5-7-3.8-10.9-3.7
	c-3.8,0-7.6,0.8-10.9,2.5c-3.4,1.7-6.4,4.1-8.8,6.9l-13-13.3c4.6-4.2,10-7.5,15.9-9.5c6-2.1,12.4-3.2,18.8-3.2
	c6-0.2,11.9,0.7,17.6,2.7c4.4,1.6,8.2,4.3,11.1,7.9c2.8,3.6,4.8,7.9,5.8,12.4c1.1,5.7,1.7,11.6,1.6,17.4v40h-22.3v-9.9H556.7z
	 M550.7,365.1c-1.8,0-4.1,0-6.9,0.2c-2.7,0.2-5.4,0.6-7.9,1.4c-2.4,0.7-4.6,1.8-6.5,3.4c-1.8,1.6-2.8,3.9-2.7,6.3
	c-0.1,2.7,1.3,5.2,3.7,6.5c2.4,1.4,5.1,2.1,7.8,2.1c2.3,0,4.6-0.3,6.9-1c2.1-0.6,4.1-1.5,5.9-2.7c1.8-1.2,3.2-2.7,4.3-4.5
	c1.1-2,1.6-4.2,1.5-6.5v-5.2h-6H550.7z"/>
<path class="st1" d="M592.6,296c0-7.8,6.3-14.1,14.1-14.1c7.8,0,14.1,6.3,14.1,14.1c0,3.7-1.5,7.3-4.1,9.9c-5.5,5.5-14.4,5.5-19.9,0
	C594.1,303.4,592.6,299.8,592.6,296z M594.6,320.8h24.3v78.8h-24.3V320.8L594.6,320.8z"/>
<path class="st1" d="M267.1,368.3h-68.7v-27.6l48.5-96.5h51.8v96.5h20v27.6h-20v31.1h-31.6V368.3z M266.2,281.4h-1.5l-29.5,59.4
	h31.9L266.2,281.4z"/>
<path class="st1" d="M329.1,244.2h35.6v155.1h-35.6v-10.5h20V254.7h-20V244.2z"/>
<path class="st1" d="M56.4,254.7h-20v134.2h20v10.5H20.8V244.2h35.6V254.7z"/>
</svg>
