
<svg xmlns="http://www.w3.org/2000/svg" version="1.1" xmlns:xlink="http://www.w3.org/1999/xlink" preserveAspectRatio="none" x="0px" y="0px" width="100px" height="100px" viewBox="0 0 100 100">
<defs>
<g id="Layer0_0_FILL">
<path fill="#000000" stroke="none" d="
M 91.05 78.3
Q 98.75 70.6 98.75 59.75 98.75 48.9 91.05 41.2 83.35 33.5 72.5 33.5 61.65 33.5 53.95 41.2 46.25 48.9 46.25 59.75 46.25 70.6 53.95 78.3 61.65 86 72.5 86 83.35 86 91.05 78.3
M 87.6 69.1
Q 87.45 69.2 87.4 69.35 84 72.55 80.65 75.85 80.5 75.85 80.45 75.85 80.45 74.95 80.45 74.05 80.45 67.45 80.6 60.85 80.6 59.8 80.25 59.25 80.1013671875 59.42421875 79.95 59.6 78.6361328125 61.1138671875 77.2 62.55 73.85 65.75 70.55 69.1 68.8890625 70.7357421875 67.2 72.35 65.5638671875 73.9857421875 63.9 75.6 63.8 75.6 63.7 75.6 63.55 75.6 63.5 75.55 61.05 73.05 58.5 70.45 58.5 70.3 58.5 70.25 60.1 68.55 61.7 66.9 62.0521484375 66.5583984375 62.4 66.2 64.945703125 63.73671875 67.4 61.2 67.8666015625 60.7900390625 68.3 60.35 71.6 57 74.85 53.7 73.85 53.7 72.8 53.7 66.3 53.7 59.65 53.8 58.6 53.9 58.1 53.45 61.45 50.2 64.7 46.95 64.9 46.8 65.05 46.6 65.25 46.45 65.45 46.3 72.05 46.3 78.7 46.3 83.25 46.3 87.8 46.3 87.8 51 87.8 55.7 87.8 62.25 87.8 68.9 87.65 69 87.6 69.1
M 40.45 70.65
L 40.35 70.65
Q 40.3 70.6 40.3 70.55 37.85 70.55 35.4 70.55 32.1 70.55 28.85 70.55 28.85 73.85 28.85 77.15 28.85 79.65 28.85 82.15 32.1 82.15 35.4 82.15 37.85 82.15 40.3 82.15 40.3 82.1 40.3 82.05 40.35 82.05 40.45 82.05 40.45 79.65 40.45 77.25 40.45 73.95 40.45 70.65
M 32.05 73.9
Q 32.05 73.85 32.05 73.8 34.5 73.8 37 73.8 37.05 73.8 37.1 73.8 37.1 76.3 37.1 78.8 37.1 78.85 37.1 78.95 34.6 78.95 32.15 78.95 32.1 78.95 32.05 78.95 32.05 76.4 32.05 73.9
M 40.3 53.7
Q 37.85 53.7 35.4 53.7 32.1 53.7 28.85 53.7 28.85 57 28.85 60.3 28.85 62.8 28.85 65.3 32.1 65.3 35.4 65.3 37.85 65.3 40.3 65.3 40.3 65.25 40.3 65.2 40.35 65.2 40.45 65.2 40.45 62.8 40.45 60.4 40.45 57.1 40.45 53.8
L 40.35 53.8
Q 40.3 53.75 40.3 53.7
M 32.05 57.05
Q 32.05 57 32.05 56.95 34.5 56.95 37 56.95 37.05 56.95 37.1 56.95 37.1 59.45 37.1 61.95 37.1 62.05 37.1 62.1 34.6 62.1 32.15 62.1 32.1 62.1 32.05 62.1 32.05 59.6 32.05 57.05
M 40.3 36.95
Q 37.85 36.95 35.4 36.95 32.1 36.95 28.85 36.95 28.85 40.25 28.85 43.55 28.85 46 28.85 48.45 32.1 48.45 35.4 48.45 37.85 48.45 40.3 48.45 40.3 46 40.3 43.55 40.3 40.25 40.3 36.95
M 37 40.1
Q 37.05 40.1 37.1 40.1
L 37.15 40.1
Q 37.2 40.15 37.2 40.2 37.2 40.25 37.2 40.3 37.2 42.75 37.2 45.25 37.15 45.25 37.1 45.25 34.55 45.25 32.05 45.25 32.05 45.2 32.05 45.1 32.05 42.6 32.05 40.1 34.5 40.1 37 40.1
M 72.6 10.6
Q 72.55 10.6 72.45 10.5 69.75 10.5 67 10.5 63.7 10.5 60.4 10.5 57.15 10.5 53.85 10.5 53.85 10.45 53.85 10.4 53.85 10 53.85 9.65 53.75 9.65 53.75 9.6 53.7 9.5 53.7 9.4 53.7 9.35 53.7 9.3 53.7 9.05 53.7 8.85 53.65 8.85 53.65 8.8 53.6 8.8 53.6 8.75 53.6 8.7 53.6 8.65 53.6 8.45 53.6 8.25
L 53.55 8.25
Q 53.5 8.2 53.5 8.15 53.5 8.1 53.45 8.05 53.4 7.65 53.25 7.25
L 53.2 7.25
Q 53.15 7.2 53.15 7.15 53.15 7.1 53.1 7.05 53.05 6.95 53.05 6.7 53 6.7 52.95 6.7 52.95 6.65 52.95 6.6 52.95 6.55 52.95 6.5 52.9 6.5 52.85 6.45 52.8 6.45 52.8 6.4 52.8 6.35 52.8 6.3 52.5 5.85 52.25 5.4 52.2 5.4 52.15 5.35 52.15 5.3 52.15 5.25
L 52.15 5.2
Q 51.95 5.1 51.95 4.95 51.9 4.95 51.85 4.9 51.8 4.9 51.8 4.8
L 51.8 4.75
Q 51.15 4.1 50.5 3.5 50.45 3.5 50.4 3.45 50.35 3.45 50.35 3.4 50.3 3.4 50.3 3.35 50.25 3.2 50.05 3.15 50 3.15 49.95 3.1
L 49.95 3.05
Q 49.85 3.05 49.8 3 49.75 3 49.7 2.95 49.65 2.95 49.6 2.9
L 49.6 2.8 49.5 2.8
Q 49.35 2.65 49.15 2.6 49.1 2.6 49.05 2.55 49 2.55 49 2.5 48.95 2.5 48.9 2.5 48.85 2.5 48.85 2.45 48.8 2.45 48.8 2.35 48.75 2.35 48.7 2.35 48.65 2.35 48.6 2.35 48.55 2.3 48.55 2.25
L 48.5 2.25
Q 48.25 2.1 47.9 2.05 47.85 2.05 47.85 2 47.8 2 47.8 1.95 47.75 1.95 47.7 1.95 47.65 1.95 47.55 1.95 47.5 1.95 47.5 1.9 47.45 1.85 47.45 1.8 47.4 1.8 47.35 1.8 47.3 1.8 47.25 1.8 47.2 1.8 47.15 1.8 47.15 1.75 47.15 1.7 47.05 1.7 47 1.7 46.9 1.7 46.8 1.7 46.75 1.7 46.7 1.65
L 46.7 1.6
Q 46.65 1.6 46.55 1.6 46.35 1.6 46.15 1.6 46.05 1.6 46.05 1.55 46 1.55 46 1.5 45.95 1.5 45.9 1.5 44.7 1.5 43.45 1.5 43.45 1.55 43.4 1.55 43.4 1.6 43.35 1.6 43.3 1.6 43.25 1.6 43 1.6 42.8 1.6 42.8 1.65 42.75 1.65 42.75 1.7 42.65 1.7 42.6 1.7 42.55 1.7 42.3 1.8 42 1.8 42 1.85 41.95 1.9 41.95 1.95 41.9 1.95 41.8 1.95 41.75 1.95 41.7 1.95 41.65 1.95
L 41.65 2
Q 41.6 2.05 41.55 2.05 41.5 2.05 41.45 2.05 41.3 2.15 41.1 2.15 41.1 2.2 41.1 2.25 41.05 2.25 41 2.25 40.95 2.25 40.85 2.25 40.85 2.3 40.85 2.35 40.8 2.35 40.75 2.35 40.7 2.35 40.65 2.35
L 40.65 2.45
Q 40.6 2.5 40.55 2.5 40.5 2.5 40.45 2.5 40.45 2.55 40.4 2.55 40.35 2.6 40.3 2.6 40.25 2.6 40.2 2.6
L 40.2 2.65
Q 40.15 2.7 40.1 2.7 40.05 2.7 40 2.75 39.95 2.75 39.85 2.8
L 39.85 2.9
Q 39.8 2.95 39.75 2.95 39.7 2.95 39.65 2.95 39.4 3.15 39.1 3.4 39.1 3.45 39.05 3.45 39.05 3.5 39 3.5 38.95 3.5 38.9 3.5 38.35 4.15 37.65 4.7 37.65 4.75 37.65 4.8 37.65 4.9 37.6 4.9 37.6 4.95 37.55 4.95 37.55 5 37.5 5 37.4 5.1 37.3 5.15 37.3 5.2 37.3 5.25 37.3 5.3 37.25 5.35 37.25 5.4 37.2 5.4 37.2 5.45 37.15 5.45 37.15 5.5 37.1 5.5 37.1 5.55 37.1 5.6 37.1 5.65 37.05 5.7
L 37 5.7
Q 37 5.75 36.95 5.8 36.85 5.95 36.75 6.05 36.75 6.1 36.75 6.15 36.75 6.2 36.7 6.25
L 36.65 6.25
Q 36.65 6.35 36.65 6.4 36.65 6.45 36.6 6.45 36.6 6.5 36.55 6.5 36.55 6.55 36.55 6.6 36.55 6.65 36.5 6.7
L 36.4 6.7
Q 36.4 6.75 36.4 6.85 36.35 6.9 36.3 6.95 36.3 7 36.3 7.05 36.3 7.1 36.3 7.15 36.3 7.2 36.25 7.25
L 36.2 7.25
Q 36.2 7.35 36.2 7.4 36.1 7.65 36 7.85 36 7.95 36 8.05 36 8.1 36 8.15 36 8.2 35.95 8.25 35.9 8.25 35.85 8.25 35.85 8.45 35.85 8.65 35.85 8.7 35.85 8.75
L 35.85 8.8
Q 35.8 8.85 35.75 8.85 35.75 9.05 35.75 9.3 35.75 9.35 35.75 9.4 35.75 9.45 35.7 9.5 35.7 9.55 35.65 9.65 35.65 9.7 35.65 9.75 35.65 10.15 35.65 10.5 32.9 10.5 30.15 10.5 26.85 10.5 23.6 10.5 20.3 10.5 17 10.5
L 17 10.6
Q 16.9 10.65 16.75 10.65 16.7 10.65 16.65 10.65 16.5 10.65 16.35 10.65 16.35 10.7 16.3 10.7 16.25 10.75 16.2 10.75 16.15 10.75 16.1 10.75 15.7 10.85 15.35 10.95 15.35 11 15.3 11.05 15.25 11.1 15.2 11.1 15.15 11.1 15.1 11.1 14.9 11.2 14.65 11.3 14.65 11.35 14.6 11.35 14.6 11.4 14.55 11.4 14.5 11.4 14.45 11.45 13.9 11.8 13.4 12.2 13.4 12.25 13.4 12.3 13.35 12.3 13.3 12.3 13.3 12.35 13.3 12.4 13.25 12.4 13.2 12.4 13.2 12.45 13.15 12.5
L 13.1 12.5
Q 13.1 12.6 13.05 12.6 13 12.65 12.95 12.65 12.95 12.7 12.95 12.75 12.8 12.85 12.65 12.95 12.65 13 12.65 13.1 12.65 13.15 12.6 13.15 12.6 13.2 12.5 13.2 12.5 13.25 12.5 13.3 12.45 13.3 12.4 13.3 12.4 13.35 12.4 13.4 12.4 13.45 12.4 13.5 12.35 13.55 12.3 13.55
L 12.3 13.6
Q 12.2 13.75 12.1 13.85 12.1 13.9 12.1 13.95 12.1 14.05 12.05 14.05 12 14.1 11.95 14.1 11.95 14.15 11.95 14.2 11.95 14.25 11.95 14.3 11.9 14.3 11.85 14.3 11.85 14.35 11.85 14.4 11.8 14.45 11.75 14.55 11.75 14.6 11.75 14.65 11.75 14.7 11.75 14.75 11.75 14.8 11.75 14.85 11.7 14.85 11.65 14.85 11.65 14.9 11.65 14.95 11.7 15.2 11.5 15.2 11.5 15.35 11.5 15.55 11.5 15.6 11.5 15.65 11.5 15.7 11.5 15.75 11.45 15.85 11.4 15.9 11.4 16.1 11.4 16.35 11.4 16.4 11.4 16.45 11.4 19.7 11.4 23 11.4 26.3 11.4 29.6 11.4 32.9 11.4 36.2 11.4 39.5 11.4 42.75 11.4 46.05 11.4 49.35 11.4 52.65 11.4 55.95 11.4 59.25 11.4 62.55 11.4 65.85 11.4 69.1 11.4 72.4 11.4 75.7 11.4 79 11.4 82.3 11.4 85.55 11.4 88.85 11.4 90.25 11.4 91.65 11.4 91.95 11.4 92.2 11.4 92.25 11.4 92.3 11.45 92.3 11.5 92.35 11.5 92.4 11.5 92.45 11.5 92.8 11.6 93.1 11.65 93.15 11.65 93.2 11.7 93.2 11.75 93.25
L 11.75 93.35
Q 11.75 93.55 11.85 93.7
L 11.85 93.75
Q 11.9 93.75 11.95 93.8 11.95 93.85 11.95 93.9 11.95 93.95 11.95 94 12 94 12.05 94.05 12.1 94.05 12.1 94.1 12.15 94.35 12.3 94.5
L 12.3 94.55
Q 12.35 94.55 12.4 94.6
L 12.4 94.7
Q 12.45 94.75 12.5 94.8 12.5 94.85 12.5 94.9
L 12.6 94.9
Q 12.65 94.95 12.65 95 12.75 95.25 12.95 95.4
L 12.95 95.45
Q 13 95.45 13.05 95.5 13.1 95.5 13.1 95.55 13.15 95.55 13.15 95.6 13.2 95.65 13.2 95.7 13.25 95.7 13.3 95.7 13.3 95.75 13.3 95.8 13.35 95.8 13.4 95.8 13.4 95.85 13.4 95.9 13.45 95.9 13.5 95.9 13.55 95.95 13.55 96 14 96.35 14.45 96.65 14.5 96.7 14.55 96.7
L 14.6 96.7
Q 14.65 96.75 14.65 96.8 14.9 96.9 15.1 97 15.15 97 15.2 97 15.25 97 15.3 97.05 15.35 97.05 15.35 97.15 15.55 97.15 15.7 97.2 15.7 97.25 15.75 97.25
L 15.85 97.25
Q 15.9 97.3 15.9 97.35 16 97.35 16.1 97.35 16.15 97.35 16.2 97.35 16.25 97.35 16.3 97.35 16.35 97.4 16.35 97.45 16.5 97.45 16.65 97.45 16.7 97.45 16.75 97.45 16.9 97.45 17 97.5
L 17 97.55
Q 20.3 97.55 23.6 97.55 26.85 97.55 30.15 97.55 33.45 97.55 36.75 97.55 40.05 97.55 43.35 97.55 46.65 97.55 49.95 97.55 53.2 97.55 56.5 97.55 59.8 97.55 63.1 97.55 66.4 97.55 69.65 97.55 71.05 97.55 72.45 97.55 72.45 97.5 72.45 97.45 72.55 97.45 72.6 97.45 72.65 97.45 72.7 97.45 72.85 97.45 73.05 97.45 73.1 97.45 73.15 97.45 73.15 97.4 73.15 97.35 73.2 97.35 73.25 97.35 73.35 97.35 73.45 97.35 73.55 97.35 73.6 97.35 73.6 97.3 73.6 97.25 73.65 97.25 73.7 97.25 73.9 97.25 74.05 97.15 74.1 97.15 74.15 97.15 74.15 97.05 74.15 97 74.2 97 74.25 97 74.55 97 74.75 96.8
L 74.8 96.8
Q 74.8 96.75 74.8 96.7 74.85 96.7 74.9 96.7 75.65 96.35 76.05 95.8 76.1 95.8 76.15 95.8 76.15 95.75 76.15 95.7 76.2 95.7 76.25 95.7 76.25 95.65 76.25 95.55 76.3 95.55 76.35 95.55 76.35 95.5 76.35 95.45 76.4 95.45 76.5 95.45 76.5 95.4 76.5 95.35 76.65 95.25 76.8 95.1 76.8 95.05 76.8 95 76.8 94.95 76.8 94.9 76.85 94.9 76.9 94.9 76.9 94.85 76.9 94.8 77 94.8 77 94.75 77.05 94.75 77.05 94.7 77.05 94.6 77.05 94.55 77.1 94.55 77.15 94.55 77.15 94.5 77.15 94.45 77.25 94.35 77.35 94.2 77.35 94.15 77.35 94.1 77.35 94.05 77.35 94 77.45 94 77.5 94 77.5 93.95 77.5 93.9 77.5 93.85 77.5 93.75 77.85 93.3 77.95 92.55 77.95 92.5 77.95 92.45 77.95 92.4 77.95 92.3 78 92.3 78.05 92.3 78.05 92.25 78.05 92.2 78.05 91.95 78.05 91.65 78.05 91.6 78.05 91.55 78.05 89.75 78.05 88 75.85 88 73.7 88 70.4 88 67.1 88 63.8 88 60.5 88 57.25 88 53.95 88 50.65 88 47.35 88 44.05 88 40.75 88 37.5 88 34.2 88 30.9 88 27.6 88 24.3 88 21 88 21 86.95 21 85.95 21 82.7 21 79.35 21 76.1 21 72.8 21 69.5 21 66.2 21 62.9 21 59.65 21 56.35 21 53.05 21 49.75 21 46.45 21 43.15 21 39.85 21 36.55 21 33.3 21 30 21 26.7 21 23.4 21 20.1 24.3 20.1 27.6 20.1 28.45 20.1 29.3 20.1 29.4 20.7 29.6 21.25 29.6 21.3 29.6 21.35 29.65 21.35 29.7 21.35 29.7 21.4 29.7 21.45 29.8 21.85 30 22.15 30.05 22.15 30.05 22.25 30.1 22.25 30.15 22.25 30.15 22.3 30.15 22.35 30.3 22.75 30.6 22.95
L 30.6 23
Q 30.65 23 30.7 23.05 30.75 23.1 30.75 23.15 31.25 23.75 31.85 24.2 31.9 24.25 31.95 24.25 32 24.25 32.05 24.25 32.05 24.3 32.05 24.35 32.4 24.45 32.65 24.65 32.65 24.7 32.75 24.7
L 32.8 24.7
Q 32.85 24.75 32.85 24.8 32.9 24.8 32.95 24.8 33 24.8 33.05 24.8 33.05 24.85 33.05 24.9 33.45 25.05 33.85 25.1 33.9 25.15 33.95 25.15 34 25.15 34.05 25.15 34.05 25.2 34.05 25.25 34.25 25.25 34.4 25.25 34.45 25.25 34.5 25.25 34.55 25.25 34.6 25.25 34.6 25.3 34.6 25.35 37.9 25.35 41.2 25.35 44.5 25.35 47.8 25.35 51.1 25.35 54.4 25.35 55.15 25.35 55.95 25.35 55.95 25.3 55.95 25.25 56 25.25 56.05 25.25 56.1 25.25 56.15 25.25 56.35 25.25 56.5 25.25 56.55 25.25 56.6 25.25 56.6 25.2 56.6 25.15 56.65 25.15 56.7 25.15 56.8 25.15 56.85 25.15 56.9 25.15 56.95 25.15 56.95 25.1 56.95 25.05 57 25.05 57.05 25.05 57.15 25.05 57.2 25.05 57.25 25.05 57.3 25.05 57.3 24.95 57.3 24.9 57.35 24.9 57.4 24.9 57.95 24.8 58.3 24.5 58.35 24.45 58.4 24.45 58.4 24.4 58.4 24.35 58.45 24.35 58.5 24.35 58.55 24.3 58.65 24.25 58.7 24.25 58.75 24.25 58.75 24.2 58.75 24.15 58.8 24.15 58.85 24.15 59.05 24.1 59.1 23.95 59.15 23.9 59.2 23.9 59.2 23.85 59.2 23.8 59.25 23.8 59.3 23.8 59.3 23.75 59.3 23.7 59.6 23.65 59.7 23.45 59.75 23.4 59.75 23.35 59.75 23.3 59.75 23.25 59.8 23.25 59.85 23.25 59.85 23.2 59.85 23.15 59.9 23.15 59.95 23.15 59.95 23.1 59.95 23 60.45 22.6 60.75 22 60.75 21.95 60.75 21.9 60.75 21.85 60.75 21.8 60.8 21.8 60.85 21.8 60.85 21.75 60.85 21.65 60.85 21.6 60.85 21.55 60.9 21.55 60.95 21.55 60.95 21.5 60.95 21.45 60.95 21.4 60.95 21.35 61 21.3 61.05 21.25 61.1 21.15 61.1 21.1 61.1 21.05 61.1 21 61.15 21 61.2 21 61.2 20.95 61.2 20.9 61.2 20.8 61.2 20.65 61.3 20.45 61.45 20.25 61.55 20.05 61.95 20.05 65.2 20.1 68.45 20.1 68.45 23.4 68.45 26.7 68.45 27.25 68.45 27.8 68.5 27.85 68.55 27.95 68.55 28 68.55 28.05 68.55 28.25 68.55 28.5 68.55 28.55 68.55 28.6 68.6 28.6 68.65 28.65
L 68.65 28.7
Q 68.65 29 68.75 29.15 68.8 29.2 68.8 29.25 68.85 29.25 68.85 29.3 68.9 29.3 68.9 29.35 68.85 29.6 69 29.65
L 69 29.7
Q 69.05 29.7 69.1 29.75
L 69.1 29.8
Q 69.1 29.85 69.1 29.95 69.15 29.95 69.2 29.95 69.2 30 69.2 30.05 69.3 30.1 69.3 30.15 69.35 30.2 69.35 30.3 69.4 30.3 69.45 30.3 69.45 30.35 69.45 30.4 69.85 30.85 70.25 31.25 70.3 31.3 70.35 31.3 70.4 31.3 70.45 31.3 70.45 31.35 70.45 31.4 70.9 31.7 71.45 31.95 71.55 31.95 71.6 31.95
L 71.65 31.95
Q 71.7 32 71.7 32.05 71.75 32.05 71.8 32.05 71.85 32.05 71.9 32.05 71.95 32.05 72 32.1 72.05 32.1 72.05 32.15 72.15 32.15 72.25 32.15 72.3 32.15 72.35 32.15 72.4 32.15 72.45 32.2 72.45 32.25 72.45 32.3 73.2 32.3 73.9 32.3 73.95 32.3 74.05 32.3 74.05 32.25 74.05 32.15 74.1 32.15 74.15 32.15 74.3 32.15 74.5 32.15 74.55 32.15 74.6 32.15 74.6 32.1 74.6 32.05 74.65 32.05 74.7 32.05 74.75 32.05 74.8 32.05 74.85 32.05 74.9 32.05 74.9 32 74.9 31.95 75 31.95 75.05 31.95 75.45 31.9 75.75 31.65 75.75 31.6 75.8 31.6 75.8 31.55 75.8 31.5 75.85 31.5 75.9 31.5 76 31.45 76.05 31.4 76.1 31.4 76.15 31.4 76.15 31.35 76.15 31.3 76.2 31.3 76.25 31.3 76.65 30.95 77 30.6 77.05 30.55 77.05 30.5 77.05 30.45 77.05 30.4 77.1 30.4 77.15 30.4 77.15 30.35 77.15 30.3 77.35 30.15 77.45 29.95 77.5 29.85 77.5 29.8 77.5 29.75 77.5 29.7 77.55 29.7 77.6 29.7 77.6 29.65 77.6 29.6 77.6 29.55 77.6 29.5 77.65 29.5 77.7 29.5 77.7 29.45 77.7 29.35 77.7 29.3 77.7 29.25 77.75 29.2 77.8 29.15 77.8 29.1 77.8 29.05 77.8 29 77.8 28.95 77.85 28.95 77.95 28.95 77.95 28.85 77.95 28.8 77.95 28.7 77.95 28.6 77.95 28.55 77.95 28.5 78 28.5 78.05 28.5 78.05 28.4 78.05 28.35 78.05 28.15 78.05 27.9 78.05 25.45 78.05 23 78.05 19.7 78.05 16.45 78.05 16.4 78.05 16.35 78.05 16.05 78.05 15.75 78 15.75 77.95 15.75 77.95 15.7 77.95 15.65 77.95 15.6 77.95 15.55 77.7 14.4 77.15 13.55 77.1 13.55 77.05 13.5 77.05 13.45 77.05 13.4 77.05 13.35 77 13.3 77 13.25 76.9 13.2 76.85 13.2 76.85 13.15 76.8 13.15 76.8 13.1
L 76.8 13
Q 76.45 12.75 76.25 12.4
L 76.2 12.4
Q 76.15 12.35 76.15 12.3 76.1 12.3 76.05 12.3 75.9 12 75.6 11.85 75.55 11.85 75.5 11.8
L 75.5 11.75
Q 75.4 11.75 75.4 11.7 75.25 11.5 74.9 11.4 74.85 11.4 74.85 11.35 74.8 11.35 74.8 11.3 74.75 11.3 74.7 11.3 74.65 11.3 74.6 11.25
L 74.6 11.2
Q 74.55 11.2 74.5 11.2 74.4 11.2 74.4 11.15 74.35 11.15 74.35 11.1 74.3 11.1 74.25 11.1 74.2 11.1 74.15 11.05 74.15 11 74.15 10.95 74.1 10.95 74.05 10.95 73.7 10.8 73.25 10.75 73.2 10.75 73.15 10.7
L 73.15 10.65
Q 73.1 10.65 73.05 10.65 72.85 10.65 72.7 10.65 72.65 10.65 72.6 10.6
M 45.45 6.5
Q 45.5 6.5 45.55 6.5 45.8 6.7 46.25 6.75 46.3 6.75 46.35 6.8 47.5 7.35 48.2 8.35 48.55 8.95 48.7 9.85 48.75 9.95 48.75 10.05 48.8 10.9 48.7 11.65 48.4 12.1 48.15 12.6 48.15 12.7 48.05 12.8 47.65 13.45 47.05 13.9 46.75 14.1 46.35 14.25 46 14.35 45.7 14.55 44.9 14.6 44.45 14.55 44.1 14.55 43.8 14.55 43.45 14.35 43.1 14.2 42.05 13.7 41.3 12.85 41.2 12.5 41.05 12.25 40.9 11.95 40.75 11.65 40.75 11.4 40.75 11.2 40.75 11.15 40.75 11.1
L 40.7 11.1
Q 40.65 10.5 40.65 9.95 40.7 9.95 40.75 9.95 40.75 9.9 40.75 9.85 40.75 9.7 40.75 9.5 40.9 9.25 41 8.95 41.45 8.05 42.15 7.4 42.5 7.1 43 6.9 43.05 6.9 43.1 6.85 43.55 6.7 43.9 6.5 44.7 6.5 45.45 6.5 Z"/>

<path fill="#FDFDFD" fill-opacity="0.9921568627450981" stroke="none" d="
M 87.4 69.35
Q 87.45 69.2 87.6 69.1 87.65 69 87.8 68.9 87.8 62.25 87.8 55.7 87.8 51 87.8 46.3 83.25 46.3 78.7 46.3 72.05 46.3 65.45 46.3 65.25 46.45 65.05 46.6 64.9 46.8 64.7 46.95 61.45 50.2 58.1 53.45 58.6 53.9 59.65 53.8 66.3 53.7 72.8 53.7 73.85 53.7 74.85 53.7 71.6 57 68.3 60.35 67.8666015625 60.7900390625 67.4 61.2 64.945703125 63.73671875 62.4 66.2 62.0521484375 66.5583984375 61.7 66.9 60.1 68.55 58.5 70.25 58.5 70.3 58.5 70.45 61.05 73.05 63.5 75.55 63.55 75.6 63.7 75.6 63.8 75.6 63.9 75.6 65.5638671875 73.9857421875 67.2 72.35 68.8890625 70.7357421875 70.55 69.1 73.85 65.75 77.2 62.55 78.6361328125 61.1138671875 79.95 59.6 80.1013671875 59.42421875 80.25 59.25 80.6 59.8 80.6 60.85 80.45 67.45 80.45 74.05 80.45 74.95 80.45 75.85 80.5 75.85 80.65 75.85 84 72.55 87.4 69.35 Z"/>
</g>
</defs>

<g transform="matrix( 1, 0, 0, 1, 0,0) ">
<use xlink:href="#Layer0_0_FILL"/>
</g>
</svg>
