
<svg xmlns="http://www.w3.org/2000/svg" version="1.1" xmlns:xlink="http://www.w3.org/1999/xlink" preserveAspectRatio="none" x="0px" y="0px" width="20px" height="20px" viewBox="0 0 20 20">
<defs>
<g id="Layer2_0_FILL">
<path fill="#EF8822" stroke="none" d="
M 18.45 5.25
Q 18.45 1.9 15.25 1.9
L 4.75 1.9
Q 1.6 1.9 1.6 5.25
L 1.6 15
Q 1.6 18.3 4.75 18.3
L 15.25 18.3
Q 18.45 18.3 18.45 15
L 18.45 5.25 Z"/>
</g>

<g id="Layer1_0_FILL">
<path fill="#FFFFFF" stroke="none" d="
M 9.1 15.15
L 15.4 6.05 13.6 4.9 8.35 12.55 6.5 11.3 5.5 12.65 9.1 15.15 Z"/>
</g>

<path id="Layer2_0_1_STROKES" stroke="#EF8822" stroke-width="2" stroke-linejoin="round" stroke-linecap="round" fill="none" d="
M 4.75 1.9
L 15.25 1.9
Q 18.45 1.9 18.45 5.25
L 18.45 15
Q 18.45 18.3 15.25 18.3
L 4.75 18.3
Q 1.6 18.3 1.6 15
L 1.6 5.25
Q 1.6 1.9 4.75 1.9 Z"/>
</defs>

<g transform="matrix( 1, 0, 0, 1, 0,0) ">
<use xlink:href="#Layer2_0_FILL"/>

<use xlink:href="#Layer2_0_1_STROKES"/>
</g>

<g transform="matrix( 1, 0, 0, 1, 0,0) ">
<use xlink:href="#Layer1_0_FILL"/>
</g>
</svg>
