
<svg xmlns="http://www.w3.org/2000/svg" version="1.1" xmlns:xlink="http://www.w3.org/1999/xlink" preserveAspectRatio="none" x="0px" y="0px" width="20px" height="20px" viewBox="0 0 20 20">
<defs>
<g id="Layer2_0_FILL">
<path fill="#CCCCCC" stroke="none" d="
M 16.6 1.7
Q 16.456640625 1.7380859375 16.35 1.85
L 1.5 16.1
Q 1.401953125 16.1923828125 1.35 16.3 1.3333984375 16.476171875 1.35 16.6 1.798828125 17.81796875 2.8 18.35 2.9671875 18.42578125 3.1 18.4 3.28515625 18.3703125 3.4 18.25
L 18.2 3.45
Q 18.329296875 3.325390625 18.35 3.15 18.3708984375 2.973046875 18.25 2.8 17.787109375 2.0923828125 16.85 1.7 16.7404296875 1.6708984375 16.6 1.7 Z"/>
</g>

<path id="Layer1_0_1_STROKES" stroke="#CCCCCC" stroke-width="2" stroke-linejoin="round" stroke-linecap="round" fill="none" d="
M 4.8 1.95
L 15.2 1.95
Q 16.05 1.95 16.7 2.2 17.45 2.5 17.85 3.1 18.4 3.95 18.4 5.25
L 18.4 14.95
Q 18.4 18.25 15.2 18.25
L 4.8 18.25
Q 3.8 18.25 3.05 17.9 2.2 17.45 1.85 16.45 1.65 15.8 1.65 14.95
L 1.65 5.25
Q 1.65 1.95 4.8 1.95 Z"/>
</defs>

<g transform="matrix( 1, 0, 0, 1, 0,0) ">
<use xlink:href="#Layer2_0_FILL"/>
</g>

<g transform="matrix( 1, 0, 0, 1, 0,0) ">
<use xlink:href="#Layer1_0_1_STROKES"/>
</g>
</svg>
