
<svg xmlns="http://www.w3.org/2000/svg" version="1.1" xmlns:xlink="http://www.w3.org/1999/xlink" preserveAspectRatio="none" x="0px" y="0px" width="40px" height="40px" viewBox="0 0 40 40">
<defs>
<g id="Layer0_0_FILL">
<path fill="#666666" stroke="none" d="
M 13.6 34
L 13.6 35.35 24.8 35.35 24.8 34 21.35 34 21.35 30.8 37 30.8 37 6 3 6 3 30.8 17.9 30.8 17.9 34 13.6 34
M 4.8 28.7
L 4.8 8.15 35.2 8.15 35.2 28.7 4.8 28.7
M 7 10
L 7 20 17.1 10 7 10
M 23 27
L 33.1 27 33.1 17 23 27 Z"/>
</g>
</defs>

<g transform="matrix( 1, 0, 0, 1, 0,0) ">
<use xlink:href="#Layer0_0_FILL"/>
</g>
</svg>
