
<svg xmlns="http://www.w3.org/2000/svg" version="1.1" xmlns:xlink="http://www.w3.org/1999/xlink" preserveAspectRatio="none" x="0px" y="0px" width="30px" height="30px" viewBox="0 0 30 30">
<defs>
<g id="Layer2_0_FILL">
<path fill="#FCFCFC" stroke="none" d="
M 27.8 6.8
Q 27.8 1.8 22.8 1.8
L 6.8 1.8
Q 1.8 1.8 1.8 6.8
L 1.8 22.8
Q 1.8 27.8 6.8 27.8
L 22.8 27.8
Q 27.8 27.8 27.8 22.8
L 27.8 6.8 Z"/>
</g>

<g id="Layer0_0_FILL">
<path fill="#BCBCBC" stroke="none" d="
M 13.4 19.6
L 13.4 22.1 16.1 22.1 16.1 19.6 13.4 19.6
M 15.05 7.5
Q 13.95 7.5 13.05 7.85 12.15 8.2 11.5 8.8 10.9 9.45 10.55 10.35 10.25 11.25 10.25 12.35
L 12.5 12.35
Q 12.5 11 13.1 10.2 13.7 9.4 14.95 9.4
L 15.55 9.5
Q 15.85 9.6 16.15 9.9 16.45 10.15 16.7 10.55 16.9 11 16.9 11.6 16.9 12.1 16.75 12.45 16.65 12.8 16.4 13.1
L 15.9 13.65 15.25 14.15 14.6 14.85
Q 14.3 15.2 14.1 15.65 13.9 16.1 13.8 16.75
L 13.7 18.2 15.85 18.2
Q 15.85 17.5 16 17 16.15 16.5 16.35 16.15
L 16.95 15.45 17.65 14.85 18.85 13.6
Q 19.1 13.25 19.25 12.75 19.4 12.2 19.4 11.5 19.4 10.55 19.05 9.8 18.7 9.05 18.1 8.55 17.55 8 16.75 7.75 15.95 7.5 15.05 7.5 Z"/>
</g>

<path id="Layer2_0_1_STROKES" stroke="#CCCCCC" stroke-width="2" stroke-linejoin="round" stroke-linecap="round" fill="none" d="
M 6.8 1.8
L 22.8 1.8
Q 27.8 1.8 27.8 6.8
L 27.8 22.8
Q 27.8 27.8 22.8 27.8
L 6.8 27.8
Q 1.8 27.8 1.8 22.8
L 1.8 6.8
Q 1.8 1.8 6.8 1.8 Z"/>
</defs>

<g transform="matrix( 1, 0, 0, 1, 0,0) ">
<use xlink:href="#Layer2_0_FILL"/>

<use xlink:href="#Layer2_0_1_STROKES"/>
</g>

<g transform="matrix( 1, 0, 0, 1, 0,0) ">
<use xlink:href="#Layer0_0_FILL"/>
</g>
</svg>
