<?xml version="1.0" encoding="UTF-8"?>
<svg width="11px" height="10px" viewBox="0 0 11 10" version="1.1" xmlns="http://www.w3.org/2000/svg" xmlns:xlink="http://www.w3.org/1999/xlink">
    <!-- Generator: Sketch Beta 50.1 (55040) - http://www.bohemiancoding.com/sketch -->
    <title>Shape</title>
    <desc>Created with Sketch Beta.</desc>
    <defs></defs>
    <g id="Symbols" stroke="none" stroke-width="1" fill="none" fill-rule="evenodd">
        <g id="bar/search/inline" transform="translate(-396.000000, -25.000000)" fill="#EF8822" fill-rule="nonzero">
            <g id="Group" transform="translate(396.000000, 23.000000)">
                <path d="M3.89803905,12 C3.70518152,12 3.52437758,11.9276784 3.39178802,11.7950889 L0.233745931,8.54061801 C-0.0675939639,8.26338531 -0.0796475597,7.79329507 0.209638739,7.49195518 C0.486871442,7.19061528 0.956961677,7.17856169 1.25830157,7.46784799 L3.57259196,9.11919061 C3.70518152,9.23972657 3.91009264,9.21561937 4.01857501,9.07097623 L9.50296109,2.2968554 C9.744033,1.97140831 10.2141232,1.89908674 10.5395703,2.15221225 C10.8650174,2.39328416 10.937339,2.8633744 10.6842135,3.18882148 L4.48866524,11.6986601 C4.35607569,11.8674104 4.16321815,11.9758928 3.95830703,11.9879464 C3.93419983,12 3.92214624,12 3.89803905,12 Z" id="Shape"></path>
            </g>
        </g>
    </g>
</svg>