<?xml version="1.0" encoding="UTF-8"?>
<svg width="16px" height="16px" viewBox="0 0 16 16" version="1.1" xmlns="http://www.w3.org/2000/svg" xmlns:xlink="http://www.w3.org/1999/xlink">
    <!-- Generator: Sketch 51.3 (57544) - http://www.bohemiancoding.com/sketch -->
    <title>icn/delete-trash</title>
    <desc>Created with Sketch.</desc>
    <defs>
        <path d="M9.71486957,1.67533333 L7.53823188,1.67533333 C7.42965217,0.733797101 6.62857971,0 5.65837681,0 C4.6882029,0 3.88724638,0.733768116 3.77866667,1.67533333 L1.60191304,1.67533333 C0.721043478,1.67533333 0.00449275362,2.39208696 0.00449275362,3.27292754 L0.00449275362,3.35489855 C0.00449275362,4.02802899 0.423623188,4.60417391 1.01405797,4.83892754 L1.01405797,12.3858551 C1.01405797,13.2667246 1.73069565,13.9834493 2.61150725,13.9834493 L8.70530435,13.9834493 C9.58614493,13.9834493 10.3027246,13.2666667 10.3027246,12.3858551 L10.3027246,4.83895652 C10.8931304,4.60417391 11.3122899,4.02802899 11.3122899,3.35492754 L11.3122899,3.27295652 C11.3122899,2.39208696 10.5956812,1.67533333 9.71486957,1.67533333 Z M5.65837681,0.757652174 C6.21017391,0.757652174 6.67075362,1.15315942 6.77266667,1.67533333 L4.54428986,1.67533333 C4.64617391,1.15313043 5.10678261,0.757652174 5.65837681,0.757652174 Z M9.54507246,12.3858551 C9.54507246,12.8489855 9.16826087,13.2258261 8.70527536,13.2258261 L2.61147826,13.2258261 C2.14849275,13.2258261 1.77168116,12.8489565 1.77168116,12.3858551 L1.77168116,4.95249275 L9.54507246,4.95249275 L9.54507246,12.3858551 Z M10.5546377,3.35489855 C10.5546377,3.81802899 10.1778261,4.19486957 9.71484058,4.19486957 L1.60191304,4.19486957 C1.13892754,4.19486957 0.762115942,3.81802899 0.762115942,3.35489855 L0.762115942,3.27292754 C0.762115942,2.8097971 1.13892754,2.43295652 1.60191304,2.43295652 L9.71486957,2.43295652 C10.1778551,2.43295652 10.5546667,2.8097971 10.5546667,3.27292754 L10.5546667,3.35489855 L10.5546377,3.35489855 Z M3.62736232,12.2568986 C3.41814493,12.2568986 3.24852174,12.0873043 3.24855072,11.8781159 L3.24855072,7.61278261 C3.24855072,7.40362319 3.41817391,7.23394203 3.62736232,7.23394203 C3.83655072,7.23394203 4.00617391,7.40362319 4.00617391,7.61278261 L4.00617391,11.8781159 C4.00617391,12.0872464 3.83657971,12.2568986 3.62736232,12.2568986 Z M5.65837681,12.2568986 C5.44915942,12.2568986 5.27956522,12.0873043 5.27956522,11.8781159 L5.27956522,7.61278261 C5.27956522,7.40362319 5.44918841,7.23394203 5.65837681,7.23394203 C5.86753623,7.23394203 6.03721739,7.40362319 6.03721739,7.61278261 L6.03721739,11.8781159 C6.03721739,12.0872464 5.8675942,12.2568986 5.65837681,12.2568986 Z M7.6893913,12.2568986 C7.4802029,12.2568986 7.31052174,12.0873043 7.31055072,11.8781159 L7.31055072,7.61278261 C7.31055072,7.40362319 7.48014493,7.23394203 7.6893913,7.23394203 C7.89855072,7.23394203 8.06817391,7.40362319 8.06817391,7.61278261 L8.06817391,11.8781159 C8.06817391,12.0872464 7.89857971,12.2568986 7.6893913,12.2568986 Z" id="path-1"></path>
    </defs>
    <g id="icn/delete-trash" stroke="none" stroke-width="1" fill="none" fill-rule="evenodd">
        <g id="↳-🎨-Color" transform="translate(2.000000, 1.000000)">
            <mask id="mask-2" fill="white">
                <use xlink:href="#path-1"></use>
            </mask>
            <use id="Mask" fill="#000000" fill-rule="nonzero" xlink:href="#path-1"></use>
            <g id="Tint/Grey-90" mask="url(#mask-2)" fill="#1F2126">
                <g transform="translate(-2.000000, -1.000000)" id="color">
                    <rect x="0" y="0" width="16" height="16"></rect>
                </g>
            </g>
        </g>
    </g>
</svg>