<?xml version="1.0" encoding="UTF-8"?>
<svg width="12px" height="11px" viewBox="0 0 12 11" version="1.1" xmlns="http://www.w3.org/2000/svg" xmlns:xlink="http://www.w3.org/1999/xlink">
    <!-- Generator: Sketch Beta 50.1 (55040) - http://www.bohemiancoding.com/sketch -->
    <title>filter</title>
    <desc>Created with Sketch Beta.</desc>
    <defs></defs>
    <g id="Symbols" stroke="none" stroke-width="1" fill="none" fill-rule="evenodd">
        <g id="bar/search/inline" transform="translate(-272.000000, -25.000000)" fill="#EF8822" fill-rule="nonzero">
            <g id="Group-27" transform="translate(272.000000, 23.000000)">
                <g id="filter" transform="translate(0.000000, 2.000000)">
                    <g id="Group">
                        <g id="Group-26">
                            <path d="M10.9060976,5.15121951 L7.08292683,5.15121951 C6.93536585,4.46707317 6.31829268,3.95731707 5.59390244,3.95731707 C4.8695122,3.95731707 4.25243902,4.46707317 4.10487805,5.15121951 L0.375609756,5.15121951 C0.187804878,5.15121951 0.0402439024,5.29878049 0.0402439024,5.48658537 C0.0402439024,5.67439024 0.187804878,5.82195122 0.375609756,5.82195122 L4.10487805,5.82195122 C4.25243902,6.50609756 4.8695122,7.01585366 5.59390244,7.01585366 C6.31829268,7.01585366 6.93536585,6.50609756 7.08292683,5.82195122 L10.9060976,5.82195122 C11.0939024,5.82195122 11.2414634,5.67439024 11.2414634,5.48658537 C11.2414634,5.31219512 11.0804878,5.15121951 10.9060976,5.15121951 Z" id="Shape"></path>
                            <path d="M1.58292683,3.13902439 C2.30731707,3.13902439 2.92439024,2.62926829 3.07195122,1.94512195 L10.8926829,1.94512195 C11.0804878,1.94512195 11.2280488,1.79756098 11.2280488,1.6097561 C11.2280488,1.42195122 11.0804878,1.27439024 10.8926829,1.27439024 L3.07195122,1.27439024 C2.92439024,0.590243902 2.30731707,0.0804878049 1.58292683,0.0804878049 C0.737804878,0.0804878049 0.0536585366,0.77804878 0.0536585366,1.6097561 C0.0536585366,2.44146341 0.737804878,3.13902439 1.58292683,3.13902439 Z" id="Shape"></path>
                            <path d="M9.69878049,7.86097561 C8.97439024,7.86097561 8.37073171,8.37073171 8.2097561,9.04146341 L0.375609756,9.04146341 C0.187804878,9.04146341 0.0402439024,9.18902439 0.0402439024,9.37682927 C0.0402439024,9.56463415 0.187804878,9.71219512 0.375609756,9.71219512 L8.2097561,9.71219512 C8.35731707,10.3963415 8.97439024,10.9195122 9.69878049,10.9195122 C10.5439024,10.9195122 11.2280488,10.2353659 11.2280488,9.3902439 C11.2280488,8.54512195 10.5304878,7.86097561 9.69878049,7.86097561 Z" id="Shape"></path>
                        </g>
                    </g>
                </g>
            </g>
        </g>
    </g>
</svg>